<svg width="73" height="62" viewBox="0 0 73 62" fill="none" xmlns="http://www.w3.org/2000/svg">
<path d="M67.5446 34.2598C67.5446 29.5322 66.4324 24.8509 64.2714 20.4832C62.1105 16.1154 58.9431 12.1468 54.9502 8.80392C50.9573 5.46101 46.217 2.80927 41 1.0001" stroke="#1868EF" stroke-opacity="0.9"/>
<circle cx="68" cy="46" r="5" fill="#EAC503"/>
<path d="M54.5781 62H51.0781C50.5677 62 50.112 61.8267 49.7109 61.48C49.3099 61.1333 49.0547 60.7227 48.9453 60.2483L46.5391 47.9863H25.5391L27.9453 60.2483C28.0547 60.7227 27.9727 61.1333 27.6992 61.48C27.4258 61.8267 27.0339 62 26.5234 62H23.0234C22.5495 62 22.112 61.8267 21.7109 61.48C21.3099 61.1333 21.0547 60.7227 20.9453 60.2483L10.5547 7.75171C10.4453 7.2408 10.5273 6.82111 10.8008 6.49267C11.0742 6.16422 11.4661 6 11.9766 6H44.0234C44.4609 6 44.8073 6.13685 45.0625 6.41056C45.3177 6.68426 45.4453 7.02183 45.4453 7.42326C45.4453 7.45976 45.4635 7.50538 45.5 7.56012C45.5365 7.61486 45.5547 7.66048 45.5547 7.69697L55.9453 60.2483C56.0547 60.7227 55.9727 61.1333 55.6992 61.48C55.4258 61.8267 55.0521 62 54.5781 62ZM31.5 23.4624C29.7135 23.4624 28.1003 23.1248 26.6602 22.4497C25.2201 21.7745 24.5 20.9443 24.5 19.9589C24.5 19.0101 24.9648 18.189 25.8945 17.4956C26.8242 16.8022 28.1094 16.4555 29.75 16.4555C31.5 16.4555 32.5937 16.5285 33.0312 16.6745C33.4687 16.8205 34.125 17.3314 35 18.2072C35.1458 18.3897 35.3099 18.6452 35.4922 18.9736C35.6745 19.3021 35.8568 19.5484 36.0391 19.7126C36.2214 19.8768 36.4583 19.9589 36.75 19.9589C37.2604 19.9589 37.707 19.7856 38.0898 19.4389C38.4727 19.0922 38.6094 18.6817 38.5 18.2072C38.0625 16.419 37.3971 15.1691 36.5039 14.4575C35.6107 13.7458 33.9427 13.2441 31.5 12.9521C31.5 12.3317 31.4909 11.8664 31.4727 11.5562C31.4544 11.246 31.3906 10.8993 31.2812 10.5161C31.1719 10.1329 30.9896 9.85924 30.7344 9.69501C30.4792 9.53079 30.151 9.44868 29.75 9.44868C29.349 9.44868 29.0208 9.53992 28.7656 9.72239C28.5104 9.90485 28.3281 10.1968 28.2187 10.5982C28.1094 10.9997 28.0456 11.3555 28.0273 11.6657C28.0091 11.9759 28 12.4047 28 12.9521C25.4115 13.2805 23.5977 13.9101 22.5586 14.8407C21.5195 15.7713 21 17.4774 21 19.9589C21 22.4405 21.957 24.2287 23.8711 25.3236C25.7852 26.4184 28.3281 26.9658 31.5 26.9658C33.2865 26.9658 34.8997 27.3125 36.3398 28.0059C37.7799 28.6993 38.5 29.5204 38.5 30.4692C38.5 31.4181 38.0352 32.2392 37.1055 32.9326C36.1758 33.6259 34.8906 33.9726 33.25 33.9726C31.5 33.9726 30.4062 33.8996 29.9687 33.7537C29.5312 33.6077 28.875 33.0968 28 32.2209C27.8542 32.0749 27.6901 31.8377 27.5078 31.5093C27.3255 31.1808 27.1432 30.9254 26.9609 30.7429C26.7786 30.5604 26.5417 30.4692 26.25 30.4692C25.7396 30.4692 25.293 30.6517 24.9102 31.0166C24.5273 31.3816 24.3906 31.783 24.5 32.2209C24.9375 34.0456 25.6029 35.3138 26.4961 36.0254C27.3893 36.737 29.0573 37.2206 31.5 37.4761C31.5 38.1329 31.5091 38.6074 31.5273 38.8993C31.5456 39.1913 31.6094 39.5288 31.7187 39.912C31.8281 40.2952 32.0013 40.5689 32.2383 40.7331C32.4753 40.8974 32.8034 40.9795 33.2227 40.9795C33.6419 40.9795 33.9792 40.8882 34.2344 40.7058C34.4896 40.5233 34.6719 40.2313 34.7812 39.8299C34.8906 39.4285 34.9544 39.0818 34.9727 38.7898C34.9909 38.4979 35 38.06 35 37.4761C37.5885 37.1841 39.4023 36.5728 40.4414 35.6422C41.4805 34.7116 42 32.9873 42 30.4692C42 28.0241 41.043 26.245 39.1289 25.132C37.2148 24.0189 34.6719 23.4624 31.5 23.4624ZM9.46094 47.9863L7.05469 60.2483C6.94531 60.7227 6.6901 61.1333 6.28906 61.48C5.88802 61.8267 5.43229 62 4.92187 62H1.42188C0.947917 62 0.574219 61.8267 0.300781 61.48C0.0273438 61.1333 -0.0546875 60.7227 0.0546875 60.2483L8.75 16.2913L15.0391 47.9863H9.46094ZM36.8047 51.4897L35.0547 60.2483C34.9453 60.7227 34.6901 61.1333 34.2891 61.48C33.888 61.8267 33.4505 62 32.9766 62H31.4453L29.4219 53.2962L29.8047 51.4897H36.8047Z" fill="#1868EF" fill-opacity="0.9"/>
</svg>
