<svg width="69" height="69" viewBox="0 0 69 69" fill="none" xmlns="http://www.w3.org/2000/svg">
<path d="M63.9997 34.2596C63.9997 29.5321 62.8875 24.8508 60.7265 20.483C58.5656 16.1153 55.3982 12.1467 51.4053 8.8038C47.4124 5.46089 42.6721 2.80915 37.4551 0.999977" stroke="#1868EF" stroke-opacity="0.9"/>
<path d="M28 13.1346C13.0192 13.1346 0.875 25.2789 0.875 40.2596C0.875 55.2404 13.0192 67.3846 28 67.3846C42.9808 67.3846 55.125 55.2404 55.125 40.2596C55.125 25.2789 42.9808 13.1346 28 13.1346ZM28 62.1346C15.9106 62.1346 6.125 52.3509 6.125 40.2596C6.125 28.1703 15.9087 18.3846 28 18.3846C40.0894 18.3846 49.875 28.1683 49.875 40.2596C49.875 52.3491 40.0913 62.1346 28 62.1346ZM40.0796 53.1888C34.2777 42.6577 34.5835 43.1844 34.2531 42.6795C36.9073 41.1614 38.5714 38.1335 38.5714 34.6758C38.5714 28.9333 35.2632 25.3514 27.4701 25.3514H18.8659C18.1421 25.3514 17.5534 25.9402 17.5534 26.6639V53.8221C17.5534 54.5459 18.1421 55.1346 18.8659 55.1346H23.0842C23.808 55.1346 24.3967 54.5459 24.3967 53.8221V44.6715H27.8922L33.0891 54.439C33.2008 54.6493 33.3677 54.8252 33.5718 54.9477C33.7759 55.0703 34.0096 55.1349 34.2477 55.1346H38.9301C39.9297 55.1346 40.5613 54.0629 40.0796 53.1888ZM28.102 38.4994H24.397V31.4841H27.3913C30.9369 31.4841 31.6492 32.8111 31.6492 34.9522C31.6491 37.2396 30.3894 38.4994 28.102 38.4994Z" fill="#1868EF" fill-opacity="0.9"/>
<circle cx="64" cy="45.2596" r="5" fill="#EAC503"/>
</svg>
