<svg width="75" height="68" viewBox="0 0 75 68" fill="none" xmlns="http://www.w3.org/2000/svg">
<path d="M69.5446 34.2596C69.5446 29.5321 68.4324 24.8508 66.2714 20.483C64.1105 16.1153 60.9431 12.1467 56.9502 8.8038C52.9573 5.46089 48.217 2.80915 43 0.999977" stroke="#1868EF" stroke-opacity="0.9"/>
<circle cx="70" cy="45.9999" r="5" fill="#EAC503"/>
<g clip-path="url(#clip0)">
<path d="M21.0068 31.2499C21.0068 32.6423 20.4537 33.9776 19.4691 34.9622C18.4846 35.9468 17.1492 36.4999 15.7568 36.4999C14.3644 36.4999 13.0291 35.9468 12.0445 34.9622C11.06 33.9776 10.5068 32.6423 10.5068 31.2499C10.5068 29.8575 11.06 28.5221 12.0445 27.5376C13.0291 26.553 14.3644 25.9999 15.7568 25.9999C17.1492 25.9999 18.4846 26.553 19.4691 27.5376C20.4537 28.5221 21.0068 29.8575 21.0068 31.2499V31.2499Z" fill="#1868EF" fill-opacity="0.9"/>
<path d="M5.25 18.9999C3.85761 18.9999 2.52226 19.553 1.53769 20.5376C0.553123 21.5221 0 22.8575 0 24.2499L0 55.7499C0 57.1423 0.553123 58.4776 1.53769 59.4622C2.52226 60.4468 3.85761 60.9999 5.25 60.9999H50.75C52.1424 60.9999 53.4777 60.4468 54.4623 59.4622C55.4469 58.4776 56 57.1423 56 55.7499V24.2499C56 22.8575 55.4469 21.5221 54.4623 20.5376C53.4777 19.553 52.1424 18.9999 50.75 18.9999H5.25ZM50.75 22.4999C51.2141 22.4999 51.6592 22.6843 51.9874 23.0124C52.3156 23.3406 52.5 23.7857 52.5 24.2499V45.2499L39.2875 38.4354C38.9593 38.271 38.5877 38.2139 38.2252 38.2723C37.8628 38.3308 37.5279 38.5017 37.268 38.7609L24.283 51.7459L14.973 45.5439C14.6369 45.3201 14.2337 45.2194 13.8318 45.259C13.4299 45.2985 13.0541 45.4759 12.768 45.7609L3.507 53.9999V55.8899C3.50282 55.8433 3.50048 55.7966 3.5 55.7499V24.2499C3.5 23.7857 3.68437 23.3406 4.01256 23.0124C4.34075 22.6843 4.78587 22.4999 5.25 22.4999H50.75Z" fill="#1868EF" fill-opacity="0.9"/>
</g>
<defs>
<clipPath id="clip0">
<rect width="56" height="56" fill="white" transform="translate(0 11.9999)"/>
</clipPath>
</defs>
</svg>
