<svg width="66" height="62" viewBox="0 0 66 62" fill="none" xmlns="http://www.w3.org/2000/svg">
<path d="M42 18.1249H1.75C0.782031 18.1249 0 18.9069 0 19.8749V60.1249C0 61.0928 0.782031 61.8749 1.75 61.8749H42C42.968 61.8749 43.75 61.0928 43.75 60.1249V19.8749C43.75 18.9069 42.968 18.1249 42 18.1249ZM40.25 43.4999H22.75V36.4999H40.25V43.4999ZM25.5938 39.9999C25.5938 40.58 25.8242 41.1364 26.2345 41.5467C26.6447 41.9569 27.2011 42.1874 27.7812 42.1874C28.3614 42.1874 28.9178 41.9569 29.328 41.5467C29.7383 41.1364 29.9688 40.58 29.9688 39.9999C29.9688 39.4197 29.7383 38.8633 29.328 38.4531C28.9178 38.0428 28.3614 37.8124 27.7812 37.8124C27.2011 37.8124 26.6447 38.0428 26.2345 38.4531C25.8242 38.8633 25.5938 39.4197 25.5938 39.9999Z" fill="#1868EF" fill-opacity="0.9"/>
<path d="M60.4196 34.2596C60.4196 29.5321 59.3074 24.8508 57.1464 20.483C54.9855 16.1153 51.8181 12.1467 47.8252 8.8038C43.8323 5.46089 39.092 2.80915 33.875 0.999977" stroke="#1868EF" stroke-opacity="0.9"/>
<circle cx="60.875" cy="45.9999" r="5" fill="#EAC503"/>
</svg>
