<svg width="1471" height="830" viewBox="0 0 1471 830" fill="none" xmlns="http://www.w3.org/2000/svg">
<path d="M1471 731C1471 731 1440.17 830 1243 830C1045.83 830 894 758.513 894 610.5C1107 585.5 985.334 610.5 1182.5 610.5C1379.67 610.5 1471 731 1471 731Z" fill="#DEECFC"/>
<path d="M709 220.5C718 133 617.5 162.5 657.5 100" stroke="white"/>
<path d="M0 0H1471V735C1349.44 618.466 1140.68 516.765 0 735V0Z" fill="#1868EF" fill-opacity="0.9"/>
<path d="M677 309C698 255.919 698 255.919 708 226" stroke="#EAC503"/>
<path d="M119 544C662.09 308.722 773.95 724.447 1457 381" stroke="white"/>
<circle cx="101" cy="267" r="10" fill="#EAC503"/>
<circle cx="302" cy="154" r="5" fill="white"/>
<circle cx="741" cy="157" r="5" fill="white"/>
<circle cx="1123" cy="359" r="5" fill="#EAC503"/>
<circle cx="956" cy="494" r="5" fill="#EAC503"/>
<circle cx="1308" cy="701" r="5" fill="#EAC503"/>
<circle cx="434" cy="573" r="5" fill="#EAC503"/>
<circle cx="1367" cy="552" r="10" fill="#EAC503"/>
<path d="M43 655.826C202.5 547.326 362 530.06 498.5 539.06" stroke="white"/>
<path d="M928 608.5C1001.78 602.798 1235.8 641.054 1284.5 685.039" stroke="#1868EF" stroke-opacity="0.9"/>
<path d="M648 546C675.5 549 717 558 749 562.5" stroke="white"/>
<path d="M675 315C665 364 744 327 776 331.5" stroke="white"/>
<path d="M1462 327L1195 437" stroke="#EAC503"/>
<path d="M709.883 202C714.617 106.66 573.371 85.5484 601.778 12" stroke="white"/>
</svg>
