<?xml version="1.0" encoding="UTF-8"?>
<svg xmlns="http://www.w3.org/2000/svg" xmlns:xlink="http://www.w3.org/1999/xlink" width="100pt" height="54pt" viewBox="0 0 100 54" version="1.1">
<g id="surface1">
<path style=" stroke:none;fill-rule:nonzero;fill:rgb(87.058824%,92.54902%,98.823529%);fill-opacity:1;" d="M 99.628906 36.457031 C 99.628906 49.699219 99.0625 54 85.714844 54 C 72.363281 54 61.542969 45.808594 61.542969 35.703125 C 61.542969 25.601562 72.363281 17.410156 85.714844 17.410156 C 99.0625 17.410156 99.085938 23.550781 99.628906 36.457031 Z M 99.628906 36.457031 "/>
<path style=" stroke:none;fill-rule:nonzero;fill:rgb(9.411765%,40.784314%,93.72549%);fill-opacity:0.901961;" d="M 0 0.546875 C 0 0.246094 0.242188 0 0.542969 0 L 99.050781 0 C 99.351562 0 99.59375 0.246094 99.59375 0.546875 L 99.59375 48.898438 C 99.59375 49.378906 99.019531 49.628906 98.664062 49.308594 C 90.269531 41.765625 74.496094 35.859375 0.660156 50.050781 C 0.324219 50.113281 0 49.859375 0 49.515625 Z M 0 0.546875 "/>
<path style="fill:none;stroke-width:1;stroke-linecap:butt;stroke-linejoin:miter;stroke:rgb(91.764706%,77.254902%,1.176471%);stroke-opacity:1;stroke-miterlimit:4;" d="M 676.996867 308.984038 C 697.997963 255.941778 697.997963 255.941778 707.979253 226.016102 " transform="matrix(0.0677048,0,0,0.0682681,0,0)"/>
<path style="fill:none;stroke-width:1;stroke-linecap:butt;stroke-linejoin:miter;stroke:rgb(100%,100%,100%);stroke-opacity:1;stroke-miterlimit:4;" d="M 119.025442 543.983565 C 662.111475 308.697942 773.925002 724.453131 1456.979878 381.023095 " transform="matrix(0.0677048,0,0,0.0682681,0,0)"/>
<path style=" stroke:none;fill-rule:nonzero;fill:rgb(91.764706%,77.254902%,1.176471%);fill-opacity:1;" d="M 7.515625 18.226562 C 7.515625 18.605469 7.210938 18.910156 6.839844 18.910156 C 6.464844 18.910156 6.160156 18.605469 6.160156 18.226562 C 6.160156 17.851562 6.464844 17.542969 6.839844 17.542969 C 7.210938 17.542969 7.515625 17.851562 7.515625 18.226562 Z M 7.515625 18.226562 "/>
<path style=" stroke:none;fill-rule:nonzero;fill:rgb(91.764706%,77.254902%,1.176471%);fill-opacity:1;" d="M 76.371094 24.507812 C 76.371094 24.695312 76.21875 24.851562 76.03125 24.851562 C 75.84375 24.851562 75.695312 24.695312 75.695312 24.507812 C 75.695312 24.320312 75.84375 24.167969 76.03125 24.167969 C 76.21875 24.167969 76.371094 24.320312 76.371094 24.507812 Z M 76.371094 24.507812 "/>
<path style=" stroke:none;fill-rule:nonzero;fill:rgb(91.764706%,77.254902%,1.176471%);fill-opacity:1;" d="M 65.0625 33.722656 C 65.0625 33.914062 64.914062 34.066406 64.726562 34.066406 C 64.539062 34.066406 64.386719 33.914062 64.386719 33.722656 C 64.386719 33.535156 64.539062 33.382812 64.726562 33.382812 C 64.914062 33.382812 65.0625 33.535156 65.0625 33.722656 Z M 65.0625 33.722656 "/>
<path style=" stroke:none;fill-rule:nonzero;fill:rgb(91.764706%,77.254902%,1.176471%);fill-opacity:1;" d="M 88.894531 47.855469 C 88.894531 48.042969 88.746094 48.195312 88.558594 48.195312 C 88.371094 48.195312 88.21875 48.042969 88.21875 47.855469 C 88.21875 47.667969 88.371094 47.515625 88.558594 47.515625 C 88.746094 47.515625 88.894531 47.667969 88.894531 47.855469 Z M 88.894531 47.855469 "/>
<path style=" stroke:none;fill-rule:nonzero;fill:rgb(91.764706%,77.254902%,1.176471%);fill-opacity:1;" d="M 29.722656 39.117188 C 29.722656 39.304688 29.570312 39.457031 29.382812 39.457031 C 29.195312 39.457031 29.046875 39.304688 29.046875 39.117188 C 29.046875 38.929688 29.195312 38.777344 29.382812 38.777344 C 29.570312 38.777344 29.722656 38.929688 29.722656 39.117188 Z M 29.722656 39.117188 "/>
<path style=" stroke:none;fill-rule:nonzero;fill:rgb(91.764706%,77.254902%,1.176471%);fill-opacity:1;" d="M 93.230469 37.683594 C 93.230469 38.0625 92.925781 38.367188 92.550781 38.367188 C 92.179688 38.367188 91.875 38.0625 91.875 37.683594 C 91.875 37.308594 92.179688 37 92.550781 37 C 92.925781 37 93.230469 37.308594 93.230469 37.683594 Z M 93.230469 37.683594 "/>
<path style="fill:none;stroke-width:1;stroke-linecap:butt;stroke-linejoin:miter;stroke:rgb(100%,100%,100%);stroke-opacity:1;stroke-miterlimit:4;" d="M 42.983012 655.847231 C 202.510568 547.302283 361.980428 530.079284 498.487552 539.062708 " transform="matrix(0.0677048,0,0,0.0682681,0,0)"/>
<path style="fill:none;stroke-width:1;stroke-linecap:butt;stroke-linejoin:miter;stroke:rgb(9.411765%,40.784314%,93.72549%);stroke-opacity:0.901961;stroke-miterlimit:4;" d="M 927.971503 608.526898 C 1001.763815 602.804971 1235.776027 641.027441 1284.528571 685.029057 " transform="matrix(0.0677048,0,0,0.0682681,0,0)"/>
<path style="fill:none;stroke-width:1;stroke-linecap:butt;stroke-linejoin:miter;stroke:rgb(100%,100%,100%);stroke-opacity:1;stroke-miterlimit:4;" d="M 647.976122 545.98624 C 675.496789 549.018861 716.979723 558.002286 749.000625 562.522608 " transform="matrix(0.0677048,0,0,0.0682681,0,0)"/>
<path style="fill:none;stroke-width:1;stroke-linecap:butt;stroke-linejoin:miter;stroke:rgb(100%,100%,100%);stroke-opacity:1;stroke-miterlimit:4;" d="M 674.977531 314.992061 C 664.996241 364.028973 743.981132 327.008107 776.002034 331.528429 " transform="matrix(0.0677048,0,0,0.0682681,0,0)"/>
<path style="fill:none;stroke-width:1;stroke-linecap:butt;stroke-linejoin:miter;stroke:rgb(91.764706%,77.254902%,1.176471%);stroke-opacity:1;stroke-miterlimit:4;" d="M 1461.999371 327.008107 L 1194.985437 436.983537 " transform="matrix(0.0677048,0,0,0.0682681,0,0)"/>
<path style=" stroke:none;fill-rule:nonzero;fill:rgb(100%,100%,100%);fill-opacity:1;" d="M 20.988281 8.261719 C 20.988281 8.449219 20.835938 8.601562 20.648438 8.601562 C 20.464844 8.601562 20.3125 8.449219 20.3125 8.261719 C 20.3125 8.074219 20.464844 7.917969 20.648438 7.917969 C 20.835938 7.917969 20.988281 8.074219 20.988281 8.261719 Z M 20.988281 8.261719 "/>
<path style=" stroke:none;fill-rule:nonzero;fill:rgb(100%,100%,100%);fill-opacity:1;" d="M 50.710938 8.464844 C 50.710938 8.652344 50.558594 8.804688 50.371094 8.804688 C 50.183594 8.804688 50.035156 8.652344 50.035156 8.464844 C 50.035156 8.277344 50.183594 8.125 50.371094 8.125 C 50.558594 8.125 50.710938 8.277344 50.710938 8.464844 Z M 50.710938 8.464844 "/>
<path style="fill:none;stroke-width:1;stroke-linecap:butt;stroke-linejoin:miter;stroke:rgb(100%,100%,100%);stroke-opacity:1;stroke-miterlimit:4;" d="M 711.498668 186.477589 C 714.498824 116.498426 583.011193 54.987715 601.012133 1.029947 " transform="matrix(0.0677048,0,0,0.0682681,0,0)"/>
</g>
</svg>
