<svg width="1477" height="791" viewBox="0 0 1477 791" fill="none" xmlns="http://www.w3.org/2000/svg">
<path d="M1471.5 534C1471.5 728 1463.17 791 1266 791C1068.83 791 909 671.012 909 523C909 374.988 1068.83 255 1266 255C1463.17 255 1463.5 345 1471.5 534Z" fill="#DEECFC"/>
<path d="M0 7.99999C0 3.58172 3.58172 0 8 0H1463C1467.42 0 1471 3.58172 1471 8V716.249C1471 723.295 1462.52 726.97 1457.26 722.282C1333.28 611.779 1100.33 525.264 9.73419 733.141C4.80188 734.081 0 730.345 0 725.324V7.99999Z" fill="#1868EF" fill-opacity="0.9"/>
<path d="M677 309C698 255.919 698 255.919 708 226" stroke="#EAC503"/>
<path d="M119 544C662.09 308.722 773.95 724.447 1457 381" stroke="white"/>
<circle cx="101" cy="267" r="10" fill="#EAC503"/>
<circle cx="1123" cy="359" r="5" fill="#EAC503"/>
<circle cx="956" cy="494" r="5" fill="#EAC503"/>
<circle cx="1308" cy="701" r="5" fill="#EAC503"/>
<circle cx="434" cy="573" r="5" fill="#EAC503"/>
<circle cx="1367" cy="552" r="10" fill="#EAC503"/>
<path d="M43 655.826C202.5 547.326 362 530.06 498.5 539.06" stroke="white"/>
<path d="M928 608.5C1001.78 602.798 1235.8 641.054 1284.5 685.039" stroke="#1868EF" stroke-opacity="0.9"/>
<path d="M648 546C675.5 549 717 558 749 562.5" stroke="white"/>
<path d="M675 315C665 364 744 327 776 331.5" stroke="white"/>
<path d="M1462 327L1195 437" stroke="#EAC503"/>
<circle cx="305" cy="121" r="5" fill="white"/>
<circle cx="744" cy="124" r="5" fill="white"/>
<path d="M711.501 186.5C714.5 116.5 583 55 601 1" stroke="white"/>
</svg>
