<svg  viewBox="0 0 1474 781" fill="none" xmlns="http://www.w3.org/2000/svg" preserveAspectRatio="xMidYMid meet">
<path d="M1472 538.5C1472 781 1472 781 1472 781C1160.51 781 908 649.392 908 501.245C908 353.097 1160.51 233 1472 233C1472 233 1472 233 1472 538.5Z" fill="#DEECFC"/>
<path d="M1 4H1472V739C1350.44 622.466 1141.68 520.765 1 739V4Z" fill="#1868EF" fill-opacity="0.9"/>
<path d="M678 313C699 259.919 699 259.919 709 230" stroke="#EAC503"/>
<path d="M1 616C598.48 281.125 721.543 872.832 1473 384" stroke="white"/>
<circle cx="102" cy="271" r="10" fill="#EAC503"/>
<circle cx="303" cy="158" r="5" fill="white"/>
<circle cx="742" cy="161" r="5" fill="white"/>
<circle cx="1124" cy="363" r="5" fill="#EAC503"/>
<circle cx="957" cy="498" r="5" fill="#EAC503"/>
<circle cx="1309" cy="705" r="5" fill="#EAC503"/>
<circle cx="435" cy="577" r="5" fill="#EAC503"/>
<circle cx="1368" cy="556" r="10" fill="#EAC503"/>
<path d="M1 684C175.732 553.426 350.464 532.648 500 543.479" stroke="white"/>
<path d="M929 612.5C1002.78 606.798 1236.8 645.054 1285.5 689.039" stroke="#1868EF" stroke-opacity="0.9"/>
<path d="M649 550C676.5 553 718 562 750 566.5" stroke="white"/>
<path d="M676 319C666 368 745 331 777 335.5" stroke="white"/>
<path d="M1472.5 327.5L1196 441" stroke="#EAC503"/>
<path d="M709.926 223C712.927 111.602 623.387 86.9355 641.395 1" stroke="white"/>
</svg>
