<?xml version="1.0" encoding="UTF-8"?>
<svg xmlns="http://www.w3.org/2000/svg" xmlns:xlink="http://www.w3.org/1999/xlink" width="500pt" height="268pt" viewBox="0 0 500 268" version="1.1">
<g id="surface1">
<path style=" stroke:none;fill-rule:nonzero;fill:rgb(87.058824%,92.54902%,98.823529%);fill-opacity:1;" d="M 498.136719 180.925781 C 498.136719 246.65625 495.316406 268 428.570312 268 C 361.824219 268 307.71875 227.347656 307.71875 177.199219 C 307.71875 127.050781 361.824219 86.398438 428.570312 86.398438 C 495.316406 86.398438 495.429688 116.890625 498.136719 180.925781 Z M 498.136719 180.925781 "/>
<path style=" stroke:none;fill-rule:nonzero;fill:rgb(9.411765%,40.784314%,93.72549%);fill-opacity:0.901961;" d="M 0 2.710938 C 0 1.214844 1.210938 0 2.707031 0 L 495.261719 0 C 496.757812 0 497.96875 1.214844 497.96875 2.710938 L 497.96875 242.671875 C 497.96875 245.0625 495.097656 246.304688 493.316406 244.71875 C 451.347656 207.277344 372.488281 177.964844 3.296875 248.398438 C 1.625 248.714844 0 247.449219 0 245.75 Z M 0 2.710938 "/>
<path style="fill:none;stroke-width:1;stroke-linecap:butt;stroke-linejoin:miter;stroke:rgb(91.764706%,77.254902%,1.176471%);stroke-opacity:1;stroke-miterlimit:4;" d="M 676.996797 308.995904 C 697.997891 255.915156 697.997891 255.915156 708.002258 225.996706 " transform="matrix(0.338524,0,0,0.338812,0,0)"/>
<path style="fill:none;stroke-width:1;stroke-linecap:butt;stroke-linejoin:miter;stroke:rgb(100%,100%,100%);stroke-opacity:1;stroke-miterlimit:4;" d="M 119.002352 543.996968 C 662.088328 308.719202 773.948 724.441537 1457.002805 380.996181 " transform="matrix(0.338524,0,0,0.338812,0,0)"/>
<path style=" stroke:none;fill-rule:nonzero;fill:rgb(91.764706%,77.254902%,1.176471%);fill-opacity:1;" d="M 37.574219 90.460938 C 37.574219 92.332031 36.058594 93.851562 34.191406 93.851562 C 32.320312 93.851562 30.804688 92.332031 30.804688 90.460938 C 30.804688 88.589844 32.320312 87.074219 34.191406 87.074219 C 36.058594 87.074219 37.574219 88.589844 37.574219 90.460938 Z M 37.574219 90.460938 "/>
<path style=" stroke:none;fill-rule:nonzero;fill:rgb(91.764706%,77.254902%,1.176471%);fill-opacity:1;" d="M 381.855469 121.632812 C 381.855469 122.570312 381.097656 123.328125 380.164062 123.328125 C 379.226562 123.328125 378.46875 122.570312 378.46875 121.632812 C 378.46875 120.699219 379.226562 119.9375 380.164062 119.9375 C 381.097656 119.9375 381.855469 120.699219 381.855469 121.632812 Z M 381.855469 121.632812 "/>
<path style=" stroke:none;fill-rule:nonzero;fill:rgb(91.764706%,77.254902%,1.176471%);fill-opacity:1;" d="M 325.320312 167.371094 C 325.320312 168.308594 324.5625 169.066406 323.628906 169.066406 C 322.695312 169.066406 321.9375 168.308594 321.9375 167.371094 C 321.9375 166.4375 322.695312 165.679688 323.628906 165.679688 C 324.5625 165.679688 325.320312 166.4375 325.320312 167.371094 Z M 325.320312 167.371094 "/>
<path style=" stroke:none;fill-rule:nonzero;fill:rgb(91.764706%,77.254902%,1.176471%);fill-opacity:1;" d="M 444.480469 237.507812 C 444.480469 238.441406 443.722656 239.199219 442.789062 239.199219 C 441.855469 239.199219 441.097656 238.441406 441.097656 237.507812 C 441.097656 236.570312 441.855469 235.8125 442.789062 235.8125 C 443.722656 235.8125 444.480469 236.570312 444.480469 237.507812 Z M 444.480469 237.507812 "/>
<path style=" stroke:none;fill-rule:nonzero;fill:rgb(91.764706%,77.254902%,1.176471%);fill-opacity:1;" d="M 148.613281 194.140625 C 148.613281 195.074219 147.855469 195.832031 146.917969 195.832031 C 145.984375 195.832031 145.226562 195.074219 145.226562 194.140625 C 145.226562 193.203125 145.984375 192.445312 146.917969 192.445312 C 147.855469 192.445312 148.613281 193.203125 148.613281 194.140625 Z M 148.613281 194.140625 "/>
<path style=" stroke:none;fill-rule:nonzero;fill:rgb(91.764706%,77.254902%,1.176471%);fill-opacity:1;" d="M 466.148438 187.023438 C 466.148438 188.894531 464.632812 190.414062 462.761719 190.414062 C 460.894531 190.414062 459.378906 188.894531 459.378906 187.023438 C 459.378906 185.152344 460.894531 183.636719 462.761719 183.636719 C 464.632812 183.636719 466.148438 185.152344 466.148438 187.023438 Z M 466.148438 187.023438 "/>
<path style="fill:none;stroke-width:1;stroke-linecap:butt;stroke-linejoin:miter;stroke:rgb(100%,100%,100%);stroke-opacity:1;stroke-miterlimit:4;" d="M 42.994547 655.830865 C 202.499008 547.328927 362.003469 530.058084 498.499039 539.062442 " transform="matrix(0.338524,0,0,0.338812,0,0)"/>
<path style="fill:none;stroke-width:1;stroke-linecap:butt;stroke-linejoin:miter;stroke:rgb(9.411765%,40.784314%,93.72549%);stroke-opacity:0.901961;stroke-miterlimit:4;" d="M 927.994484 608.503221 C 1001.77525 602.796234 1235.798977 641.050344 1284.505359 685.0345 " transform="matrix(0.338524,0,0,0.338812,0,0)"/>
<path style="fill:none;stroke-width:1;stroke-linecap:butt;stroke-linejoin:miter;stroke:rgb(100%,100%,100%);stroke-opacity:1;stroke-miterlimit:4;" d="M 647.999133 546.003061 C 675.496719 549.00067 717.002727 558.005029 749.000547 562.501443 " transform="matrix(0.338524,0,0,0.338812,0,0)"/>
<path style="fill:none;stroke-width:1;stroke-linecap:butt;stroke-linejoin:miter;stroke:rgb(100%,100%,100%);stroke-opacity:1;stroke-miterlimit:4;" d="M 675.000539 315.002653 C 664.996172 364.002041 744.004133 327.00462 776.001953 331.501035 " transform="matrix(0.338524,0,0,0.338812,0,0)"/>
<path style="fill:none;stroke-width:1;stroke-linecap:butt;stroke-linejoin:miter;stroke:rgb(91.764706%,77.254902%,1.176471%);stroke-opacity:1;stroke-miterlimit:4;" d="M 1461.999219 327.00462 L 1194.996852 437.005364 " transform="matrix(0.338524,0,0,0.338812,0,0)"/>
<path style=" stroke:none;fill-rule:nonzero;fill:rgb(100%,100%,100%);fill-opacity:1;" d="M 104.941406 40.996094 C 104.941406 41.933594 104.183594 42.691406 103.25 42.691406 C 102.316406 42.691406 101.558594 41.933594 101.558594 40.996094 C 101.558594 40.0625 102.316406 39.300781 103.25 39.300781 C 104.183594 39.300781 104.941406 40.0625 104.941406 40.996094 Z M 104.941406 40.996094 "/>
<path style=" stroke:none;fill-rule:nonzero;fill:rgb(100%,100%,100%);fill-opacity:1;" d="M 253.554688 42.011719 C 253.554688 42.949219 252.796875 43.707031 251.863281 43.707031 C 250.925781 43.707031 250.167969 42.949219 250.167969 42.011719 C 250.167969 41.078125 250.925781 40.320312 251.863281 40.320312 C 252.796875 40.320312 253.554688 41.078125 253.554688 42.011719 Z M 253.554688 42.011719 "/>
<path style="fill:none;stroke-width:1;stroke-linecap:butt;stroke-linejoin:miter;stroke:rgb(100%,100%,100%);stroke-opacity:1;stroke-miterlimit:4;" d="M 711.498594 186.497435 C 714.49875 116.50325 582.999594 54.994607 601.000531 1.003046 " transform="matrix(0.338524,0,0,0.338812,0,0)"/>
</g>
</svg>
