<svg width="1394" height="433" viewBox="0 40 1394 433" fill="none" xmlns="http://www.w3.org/2000/svg">
<path d="M535.63 35H1394V433C1394 433 938.307 433 535.63 433C132.953 433 772.093 143.599 535.63 35Z" fill="#DEECFC"/>
<path d="M896.501 89.9997C987.001 26.4999 1257 180.5 1293.5 109M795.5 379C818 333.5 971.5 453.5 1069.5 392.5" stroke="white"/>
<circle cx="1309" cy="78" r="10" fill="white"/>
<path d="M847 414L873.5 421.5L900 429" stroke="white"/>
<path d="M713 401.553C713 401.553 724.5 379.552 769.5 393.803C814.5 408.053 833 410 833 410" stroke="white"/>
<path d="M509.5 89.4091C249.675 164.103 67.6963 -96.8702 1 42.9091" stroke="#DEECFC"/>
<circle cx="98" cy="97" r="10" fill="#DEECFC"/>
<circle cx="284" cy="312" r="5" fill="#DEECFC"/>
<circle cx="163" cy="403" r="5" fill="#DEECFC"/>
</svg>
